<mxfile host="app.diagrams.net" modified="2023-11-09T23:24:32.380Z" agent="Mozilla/5.0 (Macintosh; Intel Mac OS X 10_15_7) AppleWebKit/605.1.15 (KHTML, like Gecko) Version/17.0 Safari/605.1.15" etag="apudLqWofj_xwY7yOUCs" version="22.1.0" type="google">
  <diagram name="Pagina-1" id="IcXN8fOlWNEy2lFsN05K">
    <mxGraphModel grid="1" page="1" gridSize="10" guides="1" tooltips="1" connect="1" arrows="1" fold="1" pageScale="1" pageWidth="827" pageHeight="1169" math="0" shadow="0">
      <root>
        <mxCell id="0" />
        <mxCell id="1" parent="0" />
        <mxCell id="gyV-ot2WQom3O8spfm2u-3" style="edgeStyle=orthogonalEdgeStyle;rounded=0;orthogonalLoop=1;jettySize=auto;html=1;entryX=0.5;entryY=0;entryDx=0;entryDy=0;" edge="1" parent="1" source="NWc99wQcvj1qhYtIiQSy-1" target="gyV-ot2WQom3O8spfm2u-2">
          <mxGeometry relative="1" as="geometry" />
        </mxCell>
        <mxCell id="NWc99wQcvj1qhYtIiQSy-1" value="Play" style="rounded=1;whiteSpace=wrap;html=1;fillColor=#f8cecc;strokeColor=#b85450;" vertex="1" parent="1">
          <mxGeometry x="340" y="50" width="120" height="60" as="geometry" />
        </mxCell>
        <mxCell id="lIG6WP8B5hE-mGesaDZO-4" style="edgeStyle=orthogonalEdgeStyle;rounded=0;orthogonalLoop=1;jettySize=auto;html=1;exitX=0.5;exitY=1;exitDx=0;exitDy=0;entryX=0.5;entryY=0;entryDx=0;entryDy=0;" edge="1" parent="1" source="gyV-ot2WQom3O8spfm2u-2" target="lIG6WP8B5hE-mGesaDZO-1">
          <mxGeometry relative="1" as="geometry" />
        </mxCell>
        <mxCell id="gyV-ot2WQom3O8spfm2u-2" value="MainMenu" style="rounded=1;whiteSpace=wrap;html=1;fillColor=#f5f5f5;fontColor=#333333;strokeColor=#666666;" vertex="1" parent="1">
          <mxGeometry x="340" y="180" width="120" height="60" as="geometry" />
        </mxCell>
        <mxCell id="lIG6WP8B5hE-mGesaDZO-5" style="edgeStyle=orthogonalEdgeStyle;rounded=0;orthogonalLoop=1;jettySize=auto;html=1;exitX=0.5;exitY=1;exitDx=0;exitDy=0;" edge="1" parent="1" source="lIG6WP8B5hE-mGesaDZO-1" target="lIG6WP8B5hE-mGesaDZO-2">
          <mxGeometry relative="1" as="geometry" />
        </mxCell>
        <mxCell id="lIG6WP8B5hE-mGesaDZO-1" value="Stage Selection Screen" style="rounded=0;whiteSpace=wrap;html=1;fillColor=#dae8fc;strokeColor=#6c8ebf;" vertex="1" parent="1">
          <mxGeometry x="340" y="300" width="120" height="60" as="geometry" />
        </mxCell>
        <mxCell id="lIG6WP8B5hE-mGesaDZO-6" style="edgeStyle=orthogonalEdgeStyle;rounded=0;orthogonalLoop=1;jettySize=auto;html=1;exitX=0;exitY=0.5;exitDx=0;exitDy=0;entryX=0;entryY=0.5;entryDx=0;entryDy=0;" edge="1" parent="1" source="lIG6WP8B5hE-mGesaDZO-2" target="gyV-ot2WQom3O8spfm2u-2">
          <mxGeometry relative="1" as="geometry">
            <Array as="points">
              <mxPoint x="200" y="450" />
              <mxPoint x="200" y="210" />
            </Array>
          </mxGeometry>
        </mxCell>
        <mxCell id="lIG6WP8B5hE-mGesaDZO-7" value="Home Button" style="edgeLabel;html=1;align=center;verticalAlign=middle;resizable=0;points=[];" connectable="0" vertex="1" parent="lIG6WP8B5hE-mGesaDZO-6">
          <mxGeometry x="-0.6463" y="1" relative="1" as="geometry">
            <mxPoint as="offset" />
          </mxGeometry>
        </mxCell>
        <mxCell id="lIG6WP8B5hE-mGesaDZO-9" style="edgeStyle=orthogonalEdgeStyle;rounded=0;orthogonalLoop=1;jettySize=auto;html=1;exitX=0.5;exitY=1;exitDx=0;exitDy=0;entryX=0.5;entryY=0;entryDx=0;entryDy=0;" edge="1" parent="1" source="lIG6WP8B5hE-mGesaDZO-2" target="lIG6WP8B5hE-mGesaDZO-8">
          <mxGeometry relative="1" as="geometry" />
        </mxCell>
        <mxCell id="lIG6WP8B5hE-mGesaDZO-10" value="Select Level" style="edgeLabel;html=1;align=center;verticalAlign=middle;resizable=0;points=[];" connectable="0" vertex="1" parent="lIG6WP8B5hE-mGesaDZO-9">
          <mxGeometry x="-0.2289" y="-1" relative="1" as="geometry">
            <mxPoint x="1" y="9" as="offset" />
          </mxGeometry>
        </mxCell>
        <mxCell id="lIG6WP8B5hE-mGesaDZO-11" style="edgeStyle=orthogonalEdgeStyle;rounded=0;orthogonalLoop=1;jettySize=auto;html=1;exitX=1;exitY=0.5;exitDx=0;exitDy=0;entryX=1;entryY=0.5;entryDx=0;entryDy=0;" edge="1" parent="1" source="lIG6WP8B5hE-mGesaDZO-2" target="lIG6WP8B5hE-mGesaDZO-1">
          <mxGeometry relative="1" as="geometry">
            <Array as="points">
              <mxPoint x="600" y="450" />
              <mxPoint x="600" y="330" />
            </Array>
          </mxGeometry>
        </mxCell>
        <mxCell id="lIG6WP8B5hE-mGesaDZO-12" value="Change Stage" style="edgeLabel;html=1;align=center;verticalAlign=middle;resizable=0;points=[];" connectable="0" vertex="1" parent="lIG6WP8B5hE-mGesaDZO-11">
          <mxGeometry x="-0.804" relative="1" as="geometry">
            <mxPoint x="39" as="offset" />
          </mxGeometry>
        </mxCell>
        <mxCell id="lIG6WP8B5hE-mGesaDZO-2" value="Check input" style="rhombus;whiteSpace=wrap;html=1;fillColor=#ffe6cc;strokeColor=#d79b00;" vertex="1" parent="1">
          <mxGeometry x="360" y="410" width="80" height="80" as="geometry" />
        </mxCell>
        <mxCell id="lIG6WP8B5hE-mGesaDZO-14" style="edgeStyle=orthogonalEdgeStyle;rounded=0;orthogonalLoop=1;jettySize=auto;html=1;exitX=0.5;exitY=1;exitDx=0;exitDy=0;entryX=0.5;entryY=0;entryDx=0;entryDy=0;" edge="1" parent="1" source="lIG6WP8B5hE-mGesaDZO-8" target="lIG6WP8B5hE-mGesaDZO-13">
          <mxGeometry relative="1" as="geometry" />
        </mxCell>
        <mxCell id="lIG6WP8B5hE-mGesaDZO-8" value="LevelFlow" style="rounded=1;whiteSpace=wrap;html=1;fillColor=#f5f5f5;fontColor=#333333;strokeColor=#666666;" vertex="1" parent="1">
          <mxGeometry x="340" y="570" width="120" height="60" as="geometry" />
        </mxCell>
        <mxCell id="lIG6WP8B5hE-mGesaDZO-15" style="edgeStyle=orthogonalEdgeStyle;rounded=0;orthogonalLoop=1;jettySize=auto;html=1;exitX=1;exitY=0.5;exitDx=0;exitDy=0;entryX=1;entryY=0.5;entryDx=0;entryDy=0;" edge="1" parent="1" source="lIG6WP8B5hE-mGesaDZO-13" target="lIG6WP8B5hE-mGesaDZO-8">
          <mxGeometry relative="1" as="geometry">
            <Array as="points">
              <mxPoint x="560" y="735" />
              <mxPoint x="560" y="600" />
            </Array>
          </mxGeometry>
        </mxCell>
        <mxCell id="lIG6WP8B5hE-mGesaDZO-16" value="No" style="edgeLabel;html=1;align=center;verticalAlign=middle;resizable=0;points=[];" connectable="0" vertex="1" parent="lIG6WP8B5hE-mGesaDZO-15">
          <mxGeometry x="-0.7959" y="2" relative="1" as="geometry">
            <mxPoint y="1" as="offset" />
          </mxGeometry>
        </mxCell>
        <mxCell id="lIG6WP8B5hE-mGesaDZO-18" style="edgeStyle=orthogonalEdgeStyle;rounded=0;orthogonalLoop=1;jettySize=auto;html=1;exitX=0.5;exitY=1;exitDx=0;exitDy=0;entryX=0.5;entryY=0;entryDx=0;entryDy=0;" edge="1" parent="1" source="lIG6WP8B5hE-mGesaDZO-13" target="lIG6WP8B5hE-mGesaDZO-17">
          <mxGeometry relative="1" as="geometry" />
        </mxCell>
        <mxCell id="lIG6WP8B5hE-mGesaDZO-19" value="Yes" style="edgeLabel;html=1;align=center;verticalAlign=middle;resizable=0;points=[];" connectable="0" vertex="1" parent="lIG6WP8B5hE-mGesaDZO-18">
          <mxGeometry x="0.0003" y="1" relative="1" as="geometry">
            <mxPoint as="offset" />
          </mxGeometry>
        </mxCell>
        <mxCell id="lIG6WP8B5hE-mGesaDZO-13" value="Does the player complete the level?" style="rhombus;whiteSpace=wrap;html=1;fillColor=#ffe6cc;strokeColor=#d79b00;" vertex="1" parent="1">
          <mxGeometry x="335" y="690" width="130" height="90" as="geometry" />
        </mxCell>
        <mxCell id="lIG6WP8B5hE-mGesaDZO-24" style="edgeStyle=orthogonalEdgeStyle;rounded=0;orthogonalLoop=1;jettySize=auto;html=1;exitX=0;exitY=0.5;exitDx=0;exitDy=0;entryX=0.5;entryY=1;entryDx=0;entryDy=0;" edge="1" parent="1" source="lIG6WP8B5hE-mGesaDZO-17" target="lIG6WP8B5hE-mGesaDZO-23">
          <mxGeometry relative="1" as="geometry" />
        </mxCell>
        <mxCell id="lIG6WP8B5hE-mGesaDZO-26" value="No" style="edgeLabel;html=1;align=center;verticalAlign=middle;resizable=0;points=[];" connectable="0" vertex="1" parent="lIG6WP8B5hE-mGesaDZO-24">
          <mxGeometry x="-0.5631" relative="1" as="geometry">
            <mxPoint as="offset" />
          </mxGeometry>
        </mxCell>
        <mxCell id="lIG6WP8B5hE-mGesaDZO-29" value="Yes" style="edgeStyle=orthogonalEdgeStyle;rounded=0;orthogonalLoop=1;jettySize=auto;html=1;exitX=0.5;exitY=1;exitDx=0;exitDy=0;entryX=0.5;entryY=0;entryDx=0;entryDy=0;" edge="1" parent="1" source="lIG6WP8B5hE-mGesaDZO-17" target="lIG6WP8B5hE-mGesaDZO-28">
          <mxGeometry relative="1" as="geometry" />
        </mxCell>
        <mxCell id="lIG6WP8B5hE-mGesaDZO-17" value="Did the player complete all eight levels of that stage?" style="rhombus;whiteSpace=wrap;html=1;fillColor=#ffe6cc;strokeColor=#d79b00;" vertex="1" parent="1">
          <mxGeometry x="315" y="850" width="170" height="90" as="geometry" />
        </mxCell>
        <mxCell id="lIG6WP8B5hE-mGesaDZO-25" style="edgeStyle=orthogonalEdgeStyle;rounded=0;orthogonalLoop=1;jettySize=auto;html=1;exitX=0.5;exitY=0;exitDx=0;exitDy=0;entryX=0;entryY=0.5;entryDx=0;entryDy=0;" edge="1" parent="1" source="lIG6WP8B5hE-mGesaDZO-23" target="lIG6WP8B5hE-mGesaDZO-8">
          <mxGeometry relative="1" as="geometry" />
        </mxCell>
        <mxCell id="lIG6WP8B5hE-mGesaDZO-23" value="Next level starts" style="rounded=0;whiteSpace=wrap;html=1;fillColor=#dae8fc;strokeColor=#6c8ebf;" vertex="1" parent="1">
          <mxGeometry x="150" y="705" width="120" height="60" as="geometry" />
        </mxCell>
        <mxCell id="lIG6WP8B5hE-mGesaDZO-30" style="edgeStyle=orthogonalEdgeStyle;rounded=0;orthogonalLoop=1;jettySize=auto;html=1;exitX=1;exitY=0.5;exitDx=0;exitDy=0;entryX=1;entryY=0.5;entryDx=0;entryDy=0;" edge="1" parent="1" source="lIG6WP8B5hE-mGesaDZO-28" target="gyV-ot2WQom3O8spfm2u-2">
          <mxGeometry relative="1" as="geometry">
            <Array as="points">
              <mxPoint x="710" y="1060" />
              <mxPoint x="710" y="210" />
            </Array>
          </mxGeometry>
        </mxCell>
        <mxCell id="lIG6WP8B5hE-mGesaDZO-28" value="Stage Cutscene" style="rounded=1;whiteSpace=wrap;html=1;fillColor=#f5f5f5;fontColor=#333333;strokeColor=#666666;" vertex="1" parent="1">
          <mxGeometry x="340" y="1030" width="120" height="60" as="geometry" />
        </mxCell>
      </root>
    </mxGraphModel>
  </diagram>
</mxfile>
